<mxfile host="65bd71144e">
    <diagram id="T8djybRnGFsI3ZbyEauK" name="Page-1">
        <mxGraphModel dx="368" dy="349" grid="1" gridSize="10" guides="1" tooltips="1" connect="1" arrows="1" fold="1" page="1" pageScale="1" pageWidth="850" pageHeight="1100" math="0" shadow="0">
            <root>
                <mxCell id="0"/>
                <mxCell id="1" parent="0"/>
                <mxCell id="5" value="" style="edgeStyle=none;html=1;fontSize=25;fontColor=#FF0080;" edge="1" parent="1" source="2" target="4">
                    <mxGeometry relative="1" as="geometry"/>
                </mxCell>
                <mxCell id="2" value="Momentum strategy" style="rounded=0;whiteSpace=wrap;html=1;fillColor=#1ba1e2;fontColor=#FF0080;strokeColor=#006EAF;fontSize=25;" vertex="1" parent="1">
                    <mxGeometry x="280" y="40" width="340" height="60" as="geometry"/>
                </mxCell>
                <mxCell id="4" value="&lt;font style=&quot;font-size: 7px;&quot; color=&quot;#000000&quot;&gt;check&lt;br&gt;&lt;div style=&quot;text-align: left;&quot;&gt;&lt;span style=&quot;background-color: initial;&quot;&gt;5,4 cancel&amp;nbsp; is same&lt;/span&gt;&lt;/div&gt;&lt;/font&gt;" style="rhombus;whiteSpace=wrap;html=1;fontSize=25;fillColor=#dae8fc;strokeColor=#6c8ebf;rounded=0;" vertex="1" parent="1">
                    <mxGeometry x="385" y="160" width="130" height="140" as="geometry"/>
                </mxCell>
            </root>
        </mxGraphModel>
    </diagram>
</mxfile>